<svg xmlns="http://www.w3.org/2000/svg" xmlns:xlink="http://www.w3.org/1999/xlink" width="213.347" height="54.116" viewBox="0 0 213.347 54.116"><defs><style>.a{fill:#253864;font-size:40px;font-family:CourierNewPS-BoldMT, Courier New;font-weight:700;}.b{fill:#ade1cd;}.c{filter:url(#a);}</style><filter id="a" x="169.171" y="0" width="44.176" height="36.723" filterUnits="userSpaceOnUse"><feOffset dx="10" dy="-4" input="SourceAlpha"/><feGaussianBlur stdDeviation="0.5" result="b"/><feFlood flood-color="#fccf5c"/><feComposite operator="in" in2="b"/><feComposite in="SourceGraphic"/></filter></defs><g transform="translate(1 5.5)"><text class="a" transform="translate(84 36.616)"><tspan x="-84.014" y="0">toddley</tspan></text><g class="c" transform="matrix(1, 0, 0, 1, -1, -5.5)"><path class="b" d="M16.808,3.856c7.863,0,14.238,5.179,14.238,11.568S24.672,26.992,16.808,26.992a17.584,17.584,0,0,1-2.22-.14C11.53,29.91,7.88,30.459,4.35,30.539v-.748c1.906-.934,3.559-2.635,3.559-4.578a5.371,5.371,0,0,0-.06-.8,10.891,10.891,0,0,1-5.279-8.99c0-6.389,6.374-11.568,14.238-11.568Z" transform="matrix(0.98, 0.17, -0.17, 0.98, 171.94, 1.26)"/></g></g></svg>